# Tiled2Unity generated file. Do not modify by hand.
# Wavefront file for 'PrimerMapaUnity_mesh_0003.obj'

# Vertices (Count = 628)
v -192 -16 0
v -208 -16 0
v -208 0 0
v -192 0 0
v -176 -16 0
v -192 -16 0
v -192 0 0
v -176 0 0
v -288 -32 0
v -304 -32 0
v -304 -16 0
v -288 -16 0
v -272 -32 0
v -288 -32 0
v -288 -16 0
v -272 -16 0
v -192 -32 0
v -208 -32 0
v -208 -16 0
v -192 -16 0
v -176 -32 0
v -192 -32 0
v -192 -16 0
v -176 -16 0
v -288 -48 0
v -304 -48 0
v -304 -32 0
v -288 -32 0
v -272 -48 0
v -288 -48 0
v -288 -32 0
v -272 -32 0
v -208 -48 0
v -224 -48 0
v -224 -32 0
v -208 -32 0
v -192 -48 0
v -208 -48 0
v -208 -32 0
v -192 -32 0
v -176 -48 0
v -192 -48 0
v -192 -32 0
v -176 -32 0
v -288 -64 0
v -304 -64 0
v -304 -48 0
v -288 -48 0
v -272 -64 0
v -288 -64 0
v -288 -48 0
v -272 -48 0
v -208 -64 0
v -224 -64 0
v -224 -48 0
v -208 -48 0
v -192 -64 0
v -208 -64 0
v -208 -48 0
v -192 -48 0
v -176 -64 0
v -192 -64 0
v -192 -48 0
v -176 -48 0
v -480 -80 0
v -496 -80 0
v -496 -64 0
v -480 -64 0
v -464 -80 0
v -480 -80 0
v -480 -64 0
v -464 -64 0
v -288 -80 0
v -304 -80 0
v -304 -64 0
v -288 -64 0
v -272 -80 0
v -288 -80 0
v -288 -64 0
v -272 -64 0
v -208 -80 0
v -224 -80 0
v -224 -64 0
v -208 -64 0
v -192 -80 0
v -208 -80 0
v -208 -64 0
v -192 -64 0
v -176 -80 0
v -192 -80 0
v -192 -64 0
v -176 -64 0
v -16 -80 0
v -32 -80 0
v -32 -64 0
v -16 -64 0
v 0 -80 0
v -16 -80 0
v -16 -64 0
v 0 -64 0
v -480 -96 0
v -496 -96 0
v -496 -80 0
v -480 -80 0
v -464 -96 0
v -480 -96 0
v -480 -80 0
v -464 -80 0
v -288 -96 0
v -304 -96 0
v -304 -80 0
v -288 -80 0
v -272 -96 0
v -288 -96 0
v -288 -80 0
v -272 -80 0
v -208 -96 0
v -224 -96 0
v -224 -80 0
v -208 -80 0
v -192 -96 0
v -208 -96 0
v -208 -80 0
v -192 -80 0
v -16 -96 0
v -32 -96 0
v -32 -80 0
v -16 -80 0
v 0 -96 0
v -16 -96 0
v -16 -80 0
v 0 -80 0
v -288 -112 0
v -304 -112 0
v -304 -96 0
v -288 -96 0
v -272 -112 0
v -288 -112 0
v -288 -96 0
v -272 -96 0
v -208 -112 0
v -224 -112 0
v -224 -96 0
v -208 -96 0
v -192 -112 0
v -208 -112 0
v -208 -96 0
v -192 -96 0
v -288 -128 0
v -304 -128 0
v -304 -112 0
v -288 -112 0
v -272 -128 0
v -288 -128 0
v -288 -112 0
v -272 -112 0
v -208 -128 0
v -224 -128 0
v -224 -112 0
v -208 -112 0
v -192 -128 0
v -208 -128 0
v -208 -112 0
v -192 -112 0
v -288 -144 0
v -304 -144 0
v -304 -128 0
v -288 -128 0
v -272 -144 0
v -288 -144 0
v -288 -128 0
v -272 -128 0
v -496 -160 0
v -512 -160 0
v -512 -144 0
v -496 -144 0
v -480 -160 0
v -496 -160 0
v -496 -144 0
v -480 -144 0
v -464 -160 0
v -480 -160 0
v -480 -144 0
v -464 -144 0
v -448 -160 0
v -464 -160 0
v -464 -144 0
v -448 -144 0
v -320 -160 0
v -336 -160 0
v -336 -144 0
v -320 -144 0
v -304 -160 0
v -320 -160 0
v -320 -144 0
v -304 -144 0
v -288 -160 0
v -304 -160 0
v -304 -144 0
v -288 -144 0
v -272 -160 0
v -288 -160 0
v -288 -144 0
v -272 -144 0
v -192 -160 0
v -208 -160 0
v -208 -144 0
v -192 -144 0
v -176 -160 0
v -192 -160 0
v -192 -144 0
v -176 -144 0
v -160 -160 0
v -176 -160 0
v -176 -144 0
v -160 -144 0
v -32 -160 0
v -48 -160 0
v -48 -144 0
v -32 -144 0
v -16 -160 0
v -32 -160 0
v -32 -144 0
v -16 -144 0
v 0 -160 0
v -16 -160 0
v -16 -144 0
v 0 -144 0
v -496 -176 0
v -512 -176 0
v -512 -160 0
v -496 -160 0
v -480 -176 0
v -496 -176 0
v -496 -160 0
v -480 -160 0
v -464 -176 0
v -480 -176 0
v -480 -160 0
v -464 -160 0
v -448 -176 0
v -464 -176 0
v -464 -160 0
v -448 -160 0
v -320 -176 0
v -336 -176 0
v -336 -160 0
v -320 -160 0
v -304 -176 0
v -320 -176 0
v -320 -160 0
v -304 -160 0
v -288 -176 0
v -304 -176 0
v -304 -160 0
v -288 -160 0
v -272 -176 0
v -288 -176 0
v -288 -160 0
v -272 -160 0
v -192 -176 0
v -208 -176 0
v -208 -160 0
v -192 -160 0
v -176 -176 0
v -192 -176 0
v -192 -160 0
v -176 -160 0
v -160 -176 0
v -176 -176 0
v -176 -160 0
v -160 -160 0
v -32 -176 0
v -48 -176 0
v -48 -160 0
v -32 -160 0
v -16 -176 0
v -32 -176 0
v -32 -160 0
v -16 -160 0
v 0 -176 0
v -16 -176 0
v -16 -160 0
v 0 -160 0
v -480 -224 0
v -496 -224 0
v -496 -208 0
v -480 -208 0
v -464 -224 0
v -480 -224 0
v -480 -208 0
v -464 -208 0
v -432 -224 0
v -448 -224 0
v -448 -208 0
v -432 -208 0
v -416 -224 0
v -432 -224 0
v -432 -208 0
v -416 -208 0
v -368 -224 0
v -384 -224 0
v -384 -208 0
v -368 -208 0
v -352 -224 0
v -368 -224 0
v -368 -208 0
v -352 -208 0
v -160 -224 0
v -176 -224 0
v -176 -208 0
v -160 -208 0
v -144 -224 0
v -160 -224 0
v -160 -208 0
v -144 -208 0
v -112 -224 0
v -128 -224 0
v -128 -208 0
v -112 -208 0
v -96 -224 0
v -112 -224 0
v -112 -208 0
v -96 -208 0
v -48 -224 0
v -64 -224 0
v -64 -208 0
v -48 -208 0
v -32 -224 0
v -48 -224 0
v -48 -208 0
v -32 -208 0
v -480 -240 0
v -496 -240 0
v -496 -224 0
v -480 -224 0
v -464 -240 0
v -480 -240 0
v -480 -224 0
v -464 -224 0
v -432 -240 0
v -448 -240 0
v -448 -224 0
v -432 -224 0
v -416 -240 0
v -432 -240 0
v -432 -224 0
v -416 -224 0
v -368 -240 0
v -384 -240 0
v -384 -224 0
v -368 -224 0
v -352 -240 0
v -368 -240 0
v -368 -224 0
v -352 -224 0
v -304 -240 0
v -320 -240 0
v -320 -224 0
v -304 -224 0
v -288 -240 0
v -304 -240 0
v -304 -224 0
v -288 -224 0
v -208 -240 0
v -224 -240 0
v -224 -224 0
v -208 -224 0
v -192 -240 0
v -208 -240 0
v -208 -224 0
v -192 -224 0
v -160 -240 0
v -176 -240 0
v -176 -224 0
v -160 -224 0
v -144 -240 0
v -160 -240 0
v -160 -224 0
v -144 -224 0
v -112 -240 0
v -128 -240 0
v -128 -224 0
v -112 -224 0
v -96 -240 0
v -112 -240 0
v -112 -224 0
v -96 -224 0
v -48 -240 0
v -64 -240 0
v -64 -224 0
v -48 -224 0
v -32 -240 0
v -48 -240 0
v -48 -224 0
v -32 -224 0
v -304 -256 0
v -320 -256 0
v -320 -240 0
v -304 -240 0
v -288 -256 0
v -304 -256 0
v -304 -240 0
v -288 -240 0
v -208 -256 0
v -224 -256 0
v -224 -240 0
v -208 -240 0
v -192 -256 0
v -208 -256 0
v -208 -240 0
v -192 -240 0
v -480 -272 0
v -496 -272 0
v -496 -256 0
v -480 -256 0
v -464 -272 0
v -480 -272 0
v -480 -256 0
v -464 -256 0
v -304 -272 0
v -320 -272 0
v -320 -256 0
v -304 -256 0
v -288 -272 0
v -304 -272 0
v -304 -256 0
v -288 -256 0
v -208 -272 0
v -224 -272 0
v -224 -256 0
v -208 -256 0
v -192 -272 0
v -208 -272 0
v -208 -256 0
v -192 -256 0
v -480 -288 0
v -496 -288 0
v -496 -272 0
v -480 -272 0
v -464 -288 0
v -480 -288 0
v -480 -272 0
v -464 -272 0
v -304 -288 0
v -320 -288 0
v -320 -272 0
v -304 -272 0
v -288 -288 0
v -304 -288 0
v -304 -272 0
v -288 -272 0
v -208 -288 0
v -224 -288 0
v -224 -272 0
v -208 -272 0
v -192 -288 0
v -208 -288 0
v -208 -272 0
v -192 -272 0
v -16 -288 0
v -32 -288 0
v -32 -272 0
v -16 -272 0
v 0 -288 0
v -16 -288 0
v -16 -272 0
v 0 -272 0
v -304 -304 0
v -320 -304 0
v -320 -288 0
v -304 -288 0
v -288 -304 0
v -304 -304 0
v -304 -288 0
v -288 -288 0
v -208 -304 0
v -224 -304 0
v -224 -288 0
v -208 -288 0
v -192 -304 0
v -208 -304 0
v -208 -288 0
v -192 -288 0
v -16 -304 0
v -32 -304 0
v -32 -288 0
v -16 -288 0
v 0 -304 0
v -16 -304 0
v -16 -288 0
v 0 -288 0
v -304 -320 0
v -320 -320 0
v -320 -304 0
v -304 -304 0
v -288 -320 0
v -304 -320 0
v -304 -304 0
v -288 -304 0
v -208 -320 0
v -224 -320 0
v -224 -304 0
v -208 -304 0
v -192 -320 0
v -208 -320 0
v -208 -304 0
v -192 -304 0
v -496 -352 0
v -512 -352 0
v -512 -336 0
v -496 -336 0
v -480 -352 0
v -496 -352 0
v -496 -336 0
v -480 -336 0
v -464 -352 0
v -480 -352 0
v -480 -336 0
v -464 -336 0
v -448 -352 0
v -464 -352 0
v -464 -336 0
v -448 -336 0
v -320 -352 0
v -336 -352 0
v -336 -336 0
v -320 -336 0
v -304 -352 0
v -320 -352 0
v -320 -336 0
v -304 -336 0
v -288 -352 0
v -304 -352 0
v -304 -336 0
v -288 -336 0
v -272 -352 0
v -288 -352 0
v -288 -336 0
v -272 -336 0
v -208 -352 0
v -224 -352 0
v -224 -336 0
v -208 -336 0
v -192 -352 0
v -208 -352 0
v -208 -336 0
v -192 -336 0
v -176 -352 0
v -192 -352 0
v -192 -336 0
v -176 -336 0
v -160 -352 0
v -176 -352 0
v -176 -336 0
v -160 -336 0
v -32 -352 0
v -48 -352 0
v -48 -336 0
v -32 -336 0
v -16 -352 0
v -32 -352 0
v -32 -336 0
v -16 -336 0
v 0 -352 0
v -16 -352 0
v -16 -336 0
v 0 -336 0
v -496 -368 0
v -512 -368 0
v -512 -352 0
v -496 -352 0
v -480 -368 0
v -496 -368 0
v -496 -352 0
v -480 -352 0
v -464 -368 0
v -480 -368 0
v -480 -352 0
v -464 -352 0
v -448 -368 0
v -464 -368 0
v -464 -352 0
v -448 -352 0
v -320 -368 0
v -336 -368 0
v -336 -352 0
v -320 -352 0
v -304 -368 0
v -320 -368 0
v -320 -352 0
v -304 -352 0
v -288 -368 0
v -304 -368 0
v -304 -352 0
v -288 -352 0
v -272 -368 0
v -288 -368 0
v -288 -352 0
v -272 -352 0
v -208 -368 0
v -224 -368 0
v -224 -352 0
v -208 -352 0
v -192 -368 0
v -208 -368 0
v -208 -352 0
v -192 -352 0
v -176 -368 0
v -192 -368 0
v -192 -352 0
v -176 -352 0
v -160 -368 0
v -176 -368 0
v -176 -352 0
v -160 -352 0
v -32 -368 0
v -48 -368 0
v -48 -352 0
v -32 -352 0
v -16 -368 0
v -32 -368 0
v -32 -352 0
v -16 -352 0
v 0 -368 0
v -16 -368 0
v -16 -352 0
v 0 -352 0

# Texture cooridinates (Count = 46)
vt 0.1 0.1666667
vt 0.125 0.1666667
vt 0.125 0.1944444
vt 0.1 0.1944444
vt 0.075 0.1666667
vt 0.075 0.1944444
vt 0.3 0.7777778
vt 0.325 0.7777778
vt 0.325 0.8055556
vt 0.3 0.8055556
vt 0.275 0.7777778
vt 0.275 0.8055556
vt 0.1 0.1388889
vt 0.125 0.1388889
vt 0.075 0.1388889
vt 0.3 0.75
vt 0.325 0.75
vt 0.275 0.75
vt 0.075 0.1111111
vt 0.1 0.1111111
vt 0.8 0.8333333
vt 0.825 0.8333333
vt 0.825 0.8611111
vt 0.8 0.8611111
vt 0.775 0.8333333
vt 0.775 0.8611111
vt 0.075 0.08333331
vt 0.1 0.08333331
vt 0.8 0.8055556
vt 0.825 0.8055556
vt 0.775 0.8055556
vt 0.725 0.4166667
vt 0.75 0.4166667
vt 0.75 0.4444444
vt 0.725 0.4444444
vt 0.7 0.4166667
vt 0.7 0.4444444
vt 0.675 0.4166667
vt 0.675 0.4444444
vt 0.65 0.4166667
vt 0.65 0.4444444
vt 0.725 0.3888889
vt 0.75 0.3888889
vt 0.7 0.3888889
vt 0.675 0.3888889
vt 0.65 0.3888889

# Normal
vn 0 0 -1

# Mesh description
g PrimerMapaUnity_mesh_0003

# Faces
f 1/1/1 2/2/1 3/3/1 4/4/1
f 5/5/1 6/1/1 7/4/1 8/6/1
f 9/7/1 10/8/1 11/9/1 12/10/1
f 13/11/1 14/7/1 15/10/1 16/12/1
f 17/13/1 18/14/1 19/2/1 20/1/1
f 21/15/1 22/13/1 23/1/1 24/5/1
f 25/16/1 26/17/1 27/8/1 28/7/1
f 29/18/1 30/16/1 31/7/1 32/11/1
f 33/7/1 34/8/1 35/9/1 36/10/1
f 37/11/1 38/7/1 39/10/1 40/12/1
f 41/19/1 42/20/1 43/13/1 44/15/1
f 45/7/1 46/8/1 47/9/1 48/10/1
f 49/11/1 50/7/1 51/10/1 52/12/1
f 53/16/1 54/17/1 55/8/1 56/7/1
f 57/18/1 58/16/1 59/7/1 60/11/1
f 61/19/1 62/20/1 63/13/1 64/15/1
f 65/21/1 66/22/1 67/23/1 68/24/1
f 69/25/1 70/21/1 71/24/1 72/26/1
f 73/16/1 74/17/1 75/8/1 76/7/1
f 77/18/1 78/16/1 79/7/1 80/11/1
f 81/7/1 82/8/1 83/9/1 84/10/1
f 85/11/1 86/7/1 87/10/1 88/12/1
f 89/27/1 90/28/1 91/20/1 92/19/1
f 93/21/1 94/22/1 95/23/1 96/24/1
f 97/25/1 98/21/1 99/24/1 100/26/1
f 101/29/1 102/30/1 103/22/1 104/21/1
f 105/31/1 106/29/1 107/21/1 108/25/1
f 109/7/1 110/8/1 111/9/1 112/10/1
f 113/11/1 114/7/1 115/10/1 116/12/1
f 117/16/1 118/17/1 119/8/1 120/7/1
f 121/18/1 122/16/1 123/7/1 124/11/1
f 125/29/1 126/30/1 127/22/1 128/21/1
f 129/31/1 130/29/1 131/21/1 132/25/1
f 133/16/1 134/17/1 135/8/1 136/7/1
f 137/18/1 138/16/1 139/7/1 140/11/1
f 141/7/1 142/8/1 143/9/1 144/10/1
f 145/11/1 146/7/1 147/10/1 148/12/1
f 149/7/1 150/8/1 151/9/1 152/10/1
f 153/11/1 154/7/1 155/10/1 156/12/1
f 157/16/1 158/17/1 159/8/1 160/7/1
f 161/18/1 162/16/1 163/7/1 164/11/1
f 165/16/1 166/17/1 167/8/1 168/7/1
f 169/18/1 170/16/1 171/7/1 172/11/1
f 173/32/1 174/33/1 175/34/1 176/35/1
f 177/36/1 178/32/1 179/35/1 180/37/1
f 181/38/1 182/36/1 183/37/1 184/39/1
f 185/40/1 186/38/1 187/39/1 188/41/1
f 189/38/1 190/36/1 191/37/1 192/39/1
f 193/40/1 194/38/1 195/39/1 196/41/1
f 197/38/1 198/36/1 199/37/1 200/39/1
f 201/40/1 202/38/1 203/39/1 204/41/1
f 205/36/1 206/32/1 207/35/1 208/37/1
f 209/38/1 210/36/1 211/37/1 212/39/1
f 213/40/1 214/38/1 215/39/1 216/41/1
f 217/40/1 218/38/1 219/39/1 220/41/1
f 221/38/1 222/36/1 223/37/1 224/39/1
f 225/40/1 226/38/1 227/39/1 228/41/1
f 229/42/1 230/43/1 231/33/1 232/32/1
f 233/44/1 234/42/1 235/32/1 236/36/1
f 237/45/1 238/44/1 239/36/1 240/38/1
f 241/46/1 242/45/1 243/38/1 244/40/1
f 245/45/1 246/44/1 247/36/1 248/38/1
f 249/46/1 250/45/1 251/38/1 252/40/1
f 253/45/1 254/44/1 255/36/1 256/38/1
f 257/46/1 258/45/1 259/38/1 260/40/1
f 261/44/1 262/42/1 263/32/1 264/36/1
f 265/45/1 266/44/1 267/36/1 268/38/1
f 269/46/1 270/45/1 271/38/1 272/40/1
f 273/46/1 274/45/1 275/38/1 276/40/1
f 277/45/1 278/44/1 279/36/1 280/38/1
f 281/46/1 282/45/1 283/38/1 284/40/1
f 285/7/1 286/8/1 287/9/1 288/10/1
f 289/11/1 290/7/1 291/10/1 292/12/1
f 293/7/1 294/8/1 295/9/1 296/10/1
f 297/11/1 298/7/1 299/10/1 300/12/1
f 301/7/1 302/8/1 303/9/1 304/10/1
f 305/11/1 306/7/1 307/10/1 308/12/1
f 309/7/1 310/8/1 311/9/1 312/10/1
f 313/11/1 314/7/1 315/10/1 316/12/1
f 317/7/1 318/8/1 319/9/1 320/10/1
f 321/11/1 322/7/1 323/10/1 324/12/1
f 325/7/1 326/8/1 327/9/1 328/10/1
f 329/11/1 330/7/1 331/10/1 332/12/1
f 333/16/1 334/17/1 335/8/1 336/7/1
f 337/18/1 338/16/1 339/7/1 340/11/1
f 341/16/1 342/17/1 343/8/1 344/7/1
f 345/18/1 346/16/1 347/7/1 348/11/1
f 349/16/1 350/17/1 351/8/1 352/7/1
f 353/18/1 354/16/1 355/7/1 356/11/1
f 357/7/1 358/8/1 359/9/1 360/10/1
f 361/11/1 362/7/1 363/10/1 364/12/1
f 365/7/1 366/8/1 367/9/1 368/10/1
f 369/11/1 370/7/1 371/10/1 372/12/1
f 373/16/1 374/17/1 375/8/1 376/7/1
f 377/18/1 378/16/1 379/7/1 380/11/1
f 381/16/1 382/17/1 383/8/1 384/7/1
f 385/18/1 386/16/1 387/7/1 388/11/1
f 389/16/1 390/17/1 391/8/1 392/7/1
f 393/18/1 394/16/1 395/7/1 396/11/1
f 397/16/1 398/17/1 399/8/1 400/7/1
f 401/18/1 402/16/1 403/7/1 404/11/1
f 405/16/1 406/17/1 407/8/1 408/7/1
f 409/18/1 410/16/1 411/7/1 412/11/1
f 413/21/1 414/22/1 415/23/1 416/24/1
f 417/25/1 418/21/1 419/24/1 420/26/1
f 421/7/1 422/8/1 423/9/1 424/10/1
f 425/11/1 426/7/1 427/10/1 428/12/1
f 429/7/1 430/8/1 431/9/1 432/10/1
f 433/11/1 434/7/1 435/10/1 436/12/1
f 437/29/1 438/30/1 439/22/1 440/21/1
f 441/31/1 442/29/1 443/21/1 444/25/1
f 445/16/1 446/17/1 447/8/1 448/7/1
f 449/18/1 450/16/1 451/7/1 452/11/1
f 453/16/1 454/17/1 455/8/1 456/7/1
f 457/18/1 458/16/1 459/7/1 460/11/1
f 461/21/1 462/22/1 463/23/1 464/24/1
f 465/25/1 466/21/1 467/24/1 468/26/1
f 469/7/1 470/8/1 471/9/1 472/10/1
f 473/11/1 474/7/1 475/10/1 476/12/1
f 477/7/1 478/8/1 479/9/1 480/10/1
f 481/11/1 482/7/1 483/10/1 484/12/1
f 485/29/1 486/30/1 487/22/1 488/21/1
f 489/31/1 490/29/1 491/21/1 492/25/1
f 493/16/1 494/17/1 495/8/1 496/7/1
f 497/18/1 498/16/1 499/7/1 500/11/1
f 501/16/1 502/17/1 503/8/1 504/7/1
f 505/18/1 506/16/1 507/7/1 508/11/1
f 509/36/1 510/32/1 511/35/1 512/37/1
f 513/38/1 514/36/1 515/37/1 516/39/1
f 517/40/1 518/38/1 519/39/1 520/41/1
f 521/38/1 522/36/1 523/37/1 524/39/1
f 525/38/1 526/36/1 527/37/1 528/39/1
f 529/40/1 530/38/1 531/39/1 532/41/1
f 533/38/1 534/36/1 535/37/1 536/39/1
f 537/40/1 538/38/1 539/39/1 540/41/1
f 541/32/1 542/33/1 543/34/1 544/35/1
f 545/32/1 546/33/1 547/34/1 548/35/1
f 549/32/1 550/33/1 551/34/1 552/35/1
f 553/36/1 554/32/1 555/35/1 556/37/1
f 557/40/1 558/38/1 559/39/1 560/41/1
f 561/38/1 562/36/1 563/37/1 564/39/1
f 565/40/1 566/38/1 567/39/1 568/41/1
f 569/44/1 570/42/1 571/32/1 572/36/1
f 573/45/1 574/44/1 575/36/1 576/38/1
f 577/46/1 578/45/1 579/38/1 580/40/1
f 581/45/1 582/44/1 583/36/1 584/38/1
f 585/45/1 586/44/1 587/36/1 588/38/1
f 589/46/1 590/45/1 591/38/1 592/40/1
f 593/45/1 594/44/1 595/36/1 596/38/1
f 597/46/1 598/45/1 599/38/1 600/40/1
f 601/42/1 602/43/1 603/33/1 604/32/1
f 605/42/1 606/43/1 607/33/1 608/32/1
f 609/42/1 610/43/1 611/33/1 612/32/1
f 613/44/1 614/42/1 615/32/1 616/36/1
f 617/46/1 618/45/1 619/38/1 620/40/1
f 621/45/1 622/44/1 623/36/1 624/38/1
f 625/46/1 626/45/1 627/38/1 628/40/1

